<?xml version="1.0" encoding="UTF-8"?>
<svg width="210mm" height="297mm" version="1.1" viewBox="0 0 210 297" xmlns="http://www.w3.org/2000/svg">
 <path d="m105.44 57.621a102.81 104.57 0 0 0-102.81 104.57 102.81 104.57 0 0 0 102.81 104.57 102.81 104.57 0 0 0 102.81-104.57 102.81 104.57 0 0 0-102.81-104.57zm0 21.341a81.826 83.231 0 0 1 81.827 83.232 81.826 83.231 0 0 1-81.827 83.231 81.826 83.231 0 0 1-81.827-83.231 81.826 83.231 0 0 1 81.827-83.232z" fill="#800080" stroke-width=".32822"/>
</svg>
