<?xml version="1.0" encoding="UTF-8"?>
<svg width="210mm" height="297mm" version="1.1" viewBox="0 0 210 297" xmlns="http://www.w3.org/2000/svg">
 <path d="m104.17 59.756a99.771 111.33 0 0 0-99.771 111.33 99.771 111.33 0 0 0 99.771 111.33 99.771 111.33 0 0 0 99.771-111.33 99.771 111.33 0 0 0-99.771-111.33zm0 26.677a75.864 84.654 0 0 1 75.864 84.654 75.864 84.654 0 0 1-75.864 84.654 75.864 84.654 0 0 1-75.864-84.654 75.864 84.654 0 0 1 75.864-84.654z" fill="#008080" stroke-width=".27588"/>
 <path d="m104.17 71.138a89.57 99.949 0 0 0-89.57 99.948 89.57 99.949 0 0 0 89.57 99.948 89.57 99.949 0 0 0 89.571-99.948 89.57 99.949 0 0 0-89.571-99.948zm0 15.295a75.864 84.654 0 0 1 75.864 84.654 75.864 84.654 0 0 1-75.864 84.654 75.864 84.654 0 0 1-75.864-84.654 75.864 84.654 0 0 1 75.864-84.654z" fill="#f60" stroke-width=".24767"/>
</svg>
